Normalized EMG Linear Envelopes
nRows=125
nColumns=4

endheader
time	 med_gas_r	  soleus_r	 tib_ant_r	
2.3619	  0.005364	  0.021953	  0.001255	
2.43347	  0.005910	  0.021677	  0.001316	
2.50504	  0.006037	  0.022450	  0.001369	
2.57661	  0.005852	  0.023549	  0.001417	
2.64819	  0.005737	  0.023392	  0.001455	
2.71976	  0.005902	  0.021783	  0.001474	
2.79133	  0.006278	  0.020011	  0.001474	
2.8629	  0.006623	  0.019179	  0.001461	
2.93448	  0.006698	  0.019411	  0.001438	
3.00605	  0.006473	  0.020127	  0.001426	
3.07762	  0.006132	  0.020590	  0.001449	
3.14919	  0.005865	  0.020578	  0.001503	
3.22077	  0.005721	  0.020680	  0.001554	
3.29234	  0.005660	  0.021512	  0.001582	
3.36391	  0.005645	  0.022558	  0.001600	
3.43548	  0.005662	  0.022503	  0.001606	
3.50706	  0.005711	  0.021038	  0.001582	
3.57863	  0.005757	  0.019353	  0.001525	
3.6502	  0.005729	  0.018483	  0.001459	
3.72177	  0.005602	  0.018308	  0.001408	
3.79335	  0.005432	  0.018444	  0.001398	
3.86492	  0.005378	  0.018983	  0.001461	
3.93649	  0.005653	  0.020025	  0.001596	
4.00806	  0.006371	  0.021265	  0.001740	
4.07964	  0.007418	  0.022377	  0.001816	
4.15121	  0.008378	  0.023259	  0.001797	
4.22278	  0.008435	  0.023761	  0.001724	
4.29435	  0.006308	  0.023461	  0.001686	
4.36593	  0.000849	  0.021584	  0.001790	
4.4375	 -0.006945	  0.017724	  0.002110	
4.50907	 -0.010419	  0.014122	  0.002768	
4.58065	  0.006086	  0.018260	  0.004171	
4.65222	  0.063706	  0.042168	  0.007077	
4.72379	  0.172199	  0.094002	  0.011909	
4.79536	  0.309249	  0.165333	  0.017608	
4.86694	  0.426315	  0.232063	  0.021867	
4.93851	  0.491970	  0.273388	  0.023366	
5.01008	  0.517356	  0.284344	  0.023024	
5.08165	  0.527271	  0.274034	  0.022525	
5.15323	  0.535262	  0.260571	  0.022905	
5.2248	  0.547955	  0.257632	  0.024655	
5.29637	  0.565208	  0.262755	  0.027796	
5.36794	  0.585012	  0.268650	  0.031407	
5.43952	  0.609291	  0.276367	  0.033578	
5.51109	  0.633587	  0.287132	  0.033009	
5.58266	  0.647504	  0.297216	  0.030865	
5.65423	  0.647094	  0.308088	  0.029350	
5.72581	  0.638135	  0.325862	  0.028816	
5.79738	  0.632161	  0.350313	  0.028355	
5.86895	  0.633108	  0.376614	  0.028280	
5.94052	  0.629165	  0.402808	  0.029737	
6.0121	  0.613355	  0.428985	  0.032865	
6.08367	  0.600824	  0.453772	  0.037474	
6.15524	  0.609861	  0.472527	  0.043669	
6.22681	  0.638158	  0.483921	  0.049600	
6.29839	  0.666319	  0.499612	  0.051502	
6.36996	  0.680730	  0.528609	  0.047993	
6.44153	  0.685832	  0.554672	  0.041791	
6.5131	  0.689150	  0.553817	  0.036604	
6.58468	  0.688902	  0.529237	  0.034299	
6.65625	  0.682519	  0.512417	  0.034902	
6.72782	  0.672696	  0.527700	  0.037245	
6.7994	  0.665854	  0.560454	  0.039452	
6.87097	  0.671049	  0.573997	  0.040502	
6.94254	  0.692624	  0.556680	  0.041219	
7.01411	  0.721277	  0.531159	  0.042624	
7.08569	  0.741732	  0.521842	  0.044462	
7.15726	  0.750286	  0.535279	  0.046101	
7.22883	  0.752845	  0.568355	  0.047403	
7.3004	  0.751375	  0.616442	  0.048580	
7.37198	  0.747357	  0.670248	  0.049903	
7.44355	  0.747152	  0.715058	  0.051226	
7.51512	  0.750587	  0.735367	  0.052166	
7.58669	  0.741392	  0.719396	  0.052687	
7.65827	  0.702345	  0.670400	  0.052855	
7.72984	  0.644510	  0.613112	  0.052441	
7.80141	  0.603011	  0.575153	  0.051362	
7.87298	  0.598487	  0.568767	  0.050232	
7.94456	  0.626735	  0.597735	  0.049702	
8.01613	  0.676590	  0.659258	  0.049521	
8.0877	  0.730994	  0.727980	  0.048956	
8.15927	  0.766408	  0.764647	  0.047787	
8.23085	  0.772014	  0.754128	  0.046565	
8.30242	  0.760803	  0.720325	  0.046173	
8.37399	  0.748104	  0.696605	  0.046885	
8.44556	  0.726535	  0.687816	  0.047750	
8.51714	  0.681275	  0.671000	  0.047274	
8.58871	  0.618881	  0.630540	  0.044784	
8.66028	  0.561018	  0.575119	  0.041206	
8.73185	  0.528596	  0.522916	  0.038587	
8.80343	  0.539431	  0.491828	  0.038626	
8.875	  0.593743	  0.499117	  0.041381	
8.94657	  0.660125	  0.548327	  0.045261	
9.01815	  0.697859	  0.616842	  0.048268	
9.08972	  0.695427	  0.665557	  0.049251	
9.16129	  0.673810	  0.667432	  0.048389	
9.23286	  0.654665	  0.629532	  0.046982	
9.30444	  0.642468	  0.580454	  0.046210	
9.37601	  0.629884	  0.541221	  0.045710	
9.44758	  0.605885	  0.513139	  0.043973	
9.51915	  0.566890	  0.483553	  0.040234	
9.59073	  0.520234	  0.442567	  0.035447	
9.6623	  0.474570	  0.395089	  0.031114	
9.73387	  0.433378	  0.352714	  0.027636	
9.80544	  0.390722	  0.319007	  0.024608	
9.87702	  0.331539	  0.285859	  0.022600	
9.94859	  0.248417	  0.241929	  0.024008	
10.0202	  0.155888	  0.185080	  0.031604	
10.0917	  0.078894	  0.126703	  0.045088	
10.1633	  0.031640	  0.082505	  0.059983	
10.2349	  0.011566	  0.059351	  0.071139	
10.3065	  0.007385	  0.052017	  0.075232	
10.378	  0.008789	  0.050289	  0.070899	
10.4496	  0.010478	  0.046904	  0.059912	
10.5212	  0.010996	  0.040633	  0.046311	
10.5927	  0.010518	  0.033801	  0.032910	
10.6643	  0.009615	  0.027979	  0.020863	
10.7359	  0.008764	  0.023238	  0.011498	
10.8075	  0.008229	  0.019887	  0.005783	
10.879	  0.008085	  0.018445	  0.003085	
10.9506	  0.008223	  0.018782	  0.002003	
11.0222	  0.008400	  0.020163	  0.001644	
11.0937	  0.008513	  0.021610	  0.001645	
11.1653	  0.008742	  0.022580	  0.001756	
11.2369	  0.009202	  0.023239	  0.001811	
